<?xml version="1.0" encoding="utf-8"?>
<!-- Generator: Adobe Illustrator 16.0.0, SVG Export Plug-In . SVG Version: 6.00 Build 0)  -->
<!DOCTYPE svg PUBLIC "-//W3C//DTD SVG 1.1//EN" "http://www.w3.org/Graphics/SVG/1.1/DTD/svg11.dtd">
<svg version="1.1" id="Layer_1" xmlns="http://www.w3.org/2000/svg" xmlns:xlink="http://www.w3.org/1999/xlink" x="0px" y="0px"
	 width="972px" height="676px" viewBox="0 0 972 676" enable-background="new 0 0 972 676" xml:space="preserve">
<g>
	<g>
		<path d="M201,313.75c8.125,0.61,15.379-4.056,21.541-8.825c8.522-6.596,15.731-14.871,22.803-22.945
			c7.295-8.328,15.128-15.729,22.929-23.573c10.19-10.245,19.424-21.417,28.139-32.93c8.226-10.866,14.36-23.752,23.944-33.501
			c0.13-0.133,3.087-2.635,3.126-2.368c0.2,1.371,0.425,2.737,0.652,4.104c0.427,2.572,0.938,5.13,1.49,7.678
			c1.068,4.922,2.498,9.759,4.334,14.449c6.772,17.293,20.923,27.972,37.357,35.519c1.81,0.832,3.647,1.601,5.485,2.366
			c0.893,0.372,1.278-1.08,0.398-1.446c-13.564-5.65-26.808-12.905-35.517-25.107c-8.138-11.402-10.977-25.783-12.959-39.369
			c-0.067-0.461-0.736-0.708-1.102-0.448c-12.202,8.635-18.708,24.208-27.441,35.95c-11.402,15.331-23.966,29.837-38.043,42.774
			c-9.117,8.379-16.603,18.395-25.209,27.292c-8.021,8.293-19.334,19.828-31.928,18.881C200.035,312.177,200.042,313.678,201,313.75
			L201,313.75z"/>
	</g>
</g>
<g>
	<g>
		<path d="M370.199,258.723c12.333-4.184,21.727-14.563,29.82-24.299c9.72-11.694,18.05-24.464,26.964-36.762
			c10.406-14.357,23.327-26.78,35.51-39.614c14.048-14.799,28.387-29.394,44.037-42.518c-0.418-0.11-0.835-0.221-1.253-0.331
			c2.914,21.3,10.314,41.843,19.723,61.093c9.721,19.888,22.292,39,38.47,54.238c0.703,0.663,1.766-0.396,1.061-1.061
			c-15.762-14.848-27.808-33.273-37.528-52.513c-9.814-19.425-17.321-40.534-20.279-62.156c-0.084-0.615-0.878-0.646-1.253-0.331
			c-15.183,12.732-29.105,26.858-42.768,41.184c-11.576,12.137-23.99,23.962-34.129,37.349
			c-9.238,12.196-17.505,25.089-26.985,37.11c-8.409,10.663-18.512,22.661-31.786,27.164
			C368.89,257.586,369.281,259.035,370.199,258.723L370.199,258.723z"/>
	</g>
</g>
<g>
	<g>
		<path d="M536,247.75c10.488,0.281,19.748-5.851,27.753-11.978c9.102-6.965,17.082-15.256,26.292-22.083
			c22.571-16.729,41.244-38.218,64.82-53.666c1.354-0.887,2.739-1.725,4.124-2.562c0.944-0.57,1.354,3.451,1.409,3.726
			c0.734,3.645,1.102,7.356,1.401,11.059c0.546,6.747,0.572,13.524,1.102,20.274c1.017,12.972,4.917,25.04,12.226,35.834
			c13.452,19.866,34.223,34.026,54.648,45.899c12.003,6.977,24.436,13.188,36.847,19.394c0.863,0.432,1.623-0.862,0.758-1.295
			c-26.671-13.336-54.018-26.926-75.973-47.497c-12.166-11.398-21.786-25.004-25.464-41.466c-3.499-15.661-1.33-31.937-5.218-47.589
			c-0.117-0.472-0.691-0.689-1.102-0.448c-23.837,13.968-42.63,34.709-63.904,52.029c-9.164,7.461-18.192,14.903-27.185,22.582
			c-8.963,7.653-20.081,16.621-32.533,16.287C535.032,246.224,535.035,247.724,536,247.75L536,247.75z"/>
	</g>
</g>
<g>
	<g>
		<path d="M291.25,232.5c0.201,4.282-1.28,8.142-1.973,12.301c-0.088,0.527,0.329,1.112,0.922,0.922
			c2.634-0.842,16.857-10.006,17.107-4.809c0.169,3.51,3.544,5.044,6.681,4.964c6.416-0.165,8.811-7.803,15.813-5.03
			c5.888,2.332,7.833-1.883,11.229-5.818c0.629-0.728-0.427-1.794-1.061-1.061c-2.401,2.781-3.797,6.997-8.69,5.86
			c-1.72-0.399-3.1-1.918-4.979-1.553c-3.833,0.745-16.497,11.617-17.494,2.637c-0.959-8.638-15.41,2.212-19.006,3.363
			c0.307,0.308,0.615,0.615,0.922,0.922c0.717-4.302,2.234-8.286,2.027-12.699C292.705,231.537,291.205,231.533,291.25,232.5
			L291.25,232.5z"/>
	</g>
</g>
<g>
	<g>
		<path d="M474.277,144.301c-1.044,3.525-2.301,6.98-2.027,10.699c0.027,0.372,0.322,0.798,0.75,0.75
			c5.635-0.628,10.551-3.863,16.194-4.312c6.601-0.526,6.84,5.269,10.185,8.679c1.784,1.819,6.121,1.188,8.061,0.13
			c3.633-1.98,6.383-5.15,7.783-9.048c0.328-0.913-1.122-1.302-1.446-0.398c-1.512,4.208-10.594,13.865-14.396,6.768
			c-1.665-3.106-2.729-5.064-5.993-6.807c-3.393-1.811-7.647-0.406-10.958,0.768c-2.275,0.807-4.49,1.686-6.825,2.313
			c-3.953,1.062-0.438-7.26,0.12-9.144C475.999,143.77,474.551,143.375,474.277,144.301L474.277,144.301z"/>
	</g>
</g>
<g>
	<g>
		<path d="M620.5,188.75c3.768-0.099,6.981-0.251,10.627,0.86c0.955,0.291,2.103,5.048,2.374,5.958
			c0.293,0.986-0.419,2.879,0.443,3.71c1.167,1.125,3.064,0.942,4.556,0.971c1.481,0.028,8.013-3.507,8.405-2.62
			c1.128,2.556,2.172,5.174,3.882,7.408c2.815,3.678,7.531,2.767,11.413,1.686c0.931-0.259,0.535-1.707-0.398-1.446
			c-3.76,1.047-7.553,1.833-10.225-1.657c-1.771-2.313-2.764-5.36-3.929-7.998c-0.133-0.301-0.552-0.429-0.847-0.345
			c-1.977,0.564-11.901,6.115-11.72,2.169c0.129-2.812-1.596-4.907-1.935-7.618c-0.503-4.035-10.287-2.64-12.646-2.578
			C619.535,187.275,619.532,188.775,620.5,188.75L620.5,188.75z"/>
	</g>
</g>
<g>
	<g>
		<path d="M658.801,207.723c1.292,0.193,2.651,0.197,3.722-0.657c1.027-0.819,1.442-2.127,1.701-3.367
			c0.197-0.944-1.249-1.345-1.446-0.398c-0.172,0.825-0.376,1.709-0.94,2.364c-0.649,0.754-1.733,0.747-2.638,0.612
			C658.253,206.135,657.847,207.581,658.801,207.723L658.801,207.723z"/>
	</g>
</g>
<g>
	<g>
		<path d="M401.25,257.5c0.967,0,0.967-1.5,0-1.5S400.283,257.5,401.25,257.5L401.25,257.5z"/>
	</g>
</g>
<g>
	<g>
		<path d="M281.015,340.457c0.739-0.11,1.691-0.035,2.215,0.75c0.62,0.929,0.393,4.011,0.301,7.191
			c-0.047,1.625-0.067,4.268-1.796,4.937c-1.66,0.643-3.052-0.081-4.154-1.637c-2.204-3.112-1.971-15.524-2.831-16.453
			c-0.647-0.7-4.908-1.074-6.435-3.274c-2.856-4.116,4.7-9.459,7.263-11.637c0.887-7.91,1.437-11.909,2.763-19.958
			c-8.846,3.72-16.798,11.289-23.847,15.227c-0.372,0.208-1.298,0.397-1.748-0.239c-1.198-1.699-0.404-8.889-0.198-10.934
			c0.233-2.317,2.27-3.814,4.15-5.251c5.844-4.466,13.036-8.051,20.199-10.946c10.752-4.346,27.123-7.799,33.401,5.219
			c9.505,19.708-12.946,36.757-29.575,40.987C280.823,336.853,280.881,338.056,281.015,340.457z M281.777,316.714
			c2.796-1.109,5.277-3.356,6.108-1.979c0.875,1.449-5.284,4.353-5.982,5.621c-0.059,1.212-0.088,1.818-0.137,3.027
			c3.209-0.373,5.815-1.245,8.095-2.33c8.985-4.275,19.131-17.18,14.838-25.276c-2.044-3.855-21.934,1.497-22.173,2.15
			c-0.195,0.534,1.165,3.124,0.905,5.108C282.669,308.535,282.337,311.272,281.777,316.714z"/>
		<path d="M340.663,313.819c-1.391,5.305-4.363,14.37-9.627,16.482c-4.086,1.64-8.58-2.6-10.549-6.355
			c-4.71-8.983,0.111-21.4,4.639-23.099c1.283-0.481,3.53-0.793,4.294,0.843c1.737,3.72-4.05,14.14-4.333,16.429
			c-0.252,2.038,2.834,4.456,6.102,3.177c3.765-1.474,5.618-6.83,7.543-10.069C339.507,312.264,339.893,312.782,340.663,313.819z
			 M323.963,295.771c-1.445-3.046,1.023-7.092,4.065-8.178c1.404-0.501,3.006,0.056,3.604,1.4c1.328,2.986,0.143,7.647-3.12,8.848
			C326.691,298.511,324.809,297.554,323.963,295.771z"/>
		<path d="M366.709,303.354c-2.522,6.711-7.49,16.341-14.39,18.849c-5.088,1.849-9.83-2.146-12.016-6.943
			c-4.599-10.094,1.405-23.159,11.797-26.737c2.375-0.818,5.76-1.108,6.879,1.909c1.372,3.696-0.431,10.222-12.313,19.9
			c0.225,0.679,0.336,1.02,0.562,1.699c1.005,2.921,3.772,3.045,6.054,2.246c5.063-1.772,8.966-9.236,11.722-13.592
			C365.689,301.752,366.03,302.286,366.709,303.354z M352.906,294.104c-0.215-0.506-0.765-0.846-1.233-0.534
			c-3.33,2.219-6.139,12.939-6.139,12.939C346.185,306.808,353.432,295.339,352.906,294.104z"/>
		<path d="M372.746,298.354c-1.221,1.665-2.146,3.182-1.406,5.3c0.608,1.739,3.155,3.559,6.919,2.532
			c5.503-1.501,10.236-8.322,13.64-12.646c0.695,1.113,1.041,1.67,1.729,2.786c-3.179,5.875-8.915,15.306-15.639,17.225
			c-5.45,1.555-10.038-3.025-12.085-8.61c-2.325-6.34-0.992-9.382,2.666-14.463c2.534-3.521,8.663-9.51,13.045-10.488
			c2.426-0.542,3.876,0.452,4.534,2.735c1.207,4.185-3.05,11.386-5.074,11.884c-1.725,0.424-3.08-1.28-3.617-2.702
			C375.531,294.463,374.59,295.754,372.746,298.354z"/>
		<path d="M420.146,292.561c-3.553,5.931-10.002,14.053-17.152,15.349c-5.271,0.956-9.28-3.515-10.678-8.409
			c-2.983-10.445,5.047-22.062,15.718-23.577c2.485-0.353,5.872-0.041,6.504,3.019c0.774,3.748-2.125,9.397-15.254,16.783
			c0.115,0.682,0.173,1.024,0.289,1.706c0.535,2.938,3.227,3.483,5.594,3.102c5.252-0.846,10.3-7.151,13.714-10.804
			C419.39,290.861,419.643,291.427,420.146,292.561z M407.951,281.349c-0.133-0.516-0.622-0.937-1.134-0.722
			c-3.641,1.524-8.053,11.282-8.053,11.282C399.362,292.313,408.276,282.61,407.951,281.349z"/>
		<path d="M476.03,288.994c-3.278,4.415-9.011,5.128-11.914,6.536c-2.416,1.171-6.289,6.024-10.922,6.296
			c-3.826,0.225-7.925-3.555-9.056-10.456c-0.931-5.678,1.575-9.763,5.518-13.307c3.887-3.494,9.506-5.937,14.37-6.31
			c1.755-0.135,4.447,0.565,4.56,2.63c0.063,1.147-1.707,2.113-1.707,2.113c0.025,0.167,2.96,2.145,3.079,4.439
			c0.174,3.364-2.693,8.76-2.496,9.109c0.355,0.629,5.363-2.447,7.683-4.247C475.502,287.076,475.679,287.716,476.03,288.994z
			 M452.402,286.232c-1.523,1.748-2.633,4.851-2.367,7.225c0.249,2.221,1.747,2.824,3.617,2.719
			c2.468-0.138,5.375-2.462,5.498-3.356c0.077-0.562-1.101-2.179-1.215-3.481c-0.35-3.981,2.758-9.113,2.576-9.098
			C458.917,280.372,454.445,283.889,452.402,286.232z"/>
		<path d="M484.552,287.149c2.237,1.29,3.007,3.81,3.983,6.022c4.071-2.554,6.144-3.811,10.367-6.284
			c0.303,1.132,0.454,1.698,0.752,2.83c-3.137,2.675-9.214,5.804-9.856,7.115c-0.255,0.52,0.143,2.829,0.055,4.192
			c-0.58,9.022-10.422,17.537-15.455,18.527c-3.172,0.625-4.478-6.444-4.622-8.968c-0.284-4.972,4.748-13.538,4.367-15.512
			c-0.151-0.783-2.289-2.395-2.381-4.307c-0.147-3.059,1.878-3.962,4.065-5.21c4.433-2.528,6.94-6.129,9.312-10.462
			c4.319-7.893,10.672-19.966,17.157-21.604c1.306-0.33,1.932,2.189,1.88,3.405c-0.126,2.962-2.812,8.208-4.669,10.523
			C493.196,275.216,490.203,279.166,484.552,287.149z M484.375,298.291c-0.576-0.473-4.817-0.761-5.361-0.556
			c-1.25,0.472-2.895,6.172-3.093,8.696c-0.192,2.448,1.292,6.682,1.674,6.769C478.834,313.483,485.54,299.246,484.375,298.291z"/>
		<path d="M567.064,286.898c9.4-8.056,13.348-11.536,17.447-15.787c2.004-2.078,1.924-2.947,1.012-3.124
			c-0.996-0.193-2.243,0.576-2.975,1.057c-8.157,5.066-16.064,10.531-23.692,16.363c-5.889,5.463-8.735,8.234-14.226,13.853
			c-1.558,1.6-3.854,4.275-6.202,4.079c-3.082-0.258-3.721-6.294-4.229-8.686c7.377-7.45,11.248-11.109,19.353-18.274
			c10.942-13.125,10.088-14.679,8.679-14.845c-0.664-0.078-2.033,0.386-2.746,0.596c-8.937,2.623-19.072,8.075-27.132,8.549
			c-1.12,0.066-2.197-1.16-1.607-2.924c1.319-3.947,2.513-8.098,3.207-8.728c0.857-0.778,0.584-0.683,8.436-4.854
			c0.458-0.244,1.673-0.915,2.265-0.86c0.423,0.039,0.968,0.393,0.899,0.843s-1.471,1.679-5.083,3.953
			c0.059,0.066,0.087,0.098,0.145,0.164c3.989-1.239,6.003-1.842,10.067-3.016c1.072-0.272,13.969-3.923,16.988-3.415
			c2.015,0.34,2.146,1.415,2.717,2.786c0.54,1.352,0.807,2.027,1.334,3.383c0.372,1.044,0.624,1.844,0.371,2.953
			c-0.556,2.44-6.453,9.583-7.923,12.219c0.052,0.067,0.076,0.101,0.128,0.168c6.087-3.942,9.222-5.839,15.667-9.46
			c3.734-2.045,12.478-6.098,15.984-5.446c1.885,0.351,5.88,2.654,4.715,6.437c-1.657,5.383-13.753,14.187-18.273,18.167
			c0.048,0.071,0.07,0.107,0.118,0.178c12.235-6.076,24.961-11.55,37.802-15.741c1.384-0.452,3.667-1.488,5.212-1.034
			c2.318,0.681,4.106,6.41,3.519,7.906c-0.561,1.425-4.137,3.13-5.546,3.903c-7.229,3.858-10.748,5.849-17.591,9.969
			c-5.074,3.05-12.669,8.614-14.407,14.133c-0.458,1.453-0.291,3.754,1.522,4.208c2.115,0.529,8.854-1.355,23.055-7.517
			c-0.291,1.124-0.436,1.686-0.729,2.809c-7.701,6.275-21.565,11.87-30.6,10.609c-4.515-0.63-5.321-6.298-3.982-10.268
			c3.399-10.079,14.429-17.041,23.563-22.649c-0.047-0.075-0.066-0.112-0.113-0.187c-13.987,5.356-26.622,12.417-37.974,22.155
			c-1.44,1.235-5.95,4.96-7.777,4.742c-2.848-0.34-2.773-5.792-2.332-7.946c0.427-2.08,2.693-4.1,4.243-5.513
			C563.004,290.414,564.344,289.23,567.064,286.898z"/>
		<path d="M633.219,312.873c-5.19,2.674-14.484,6.825-20.147,5.061c-4.397-1.37-4.586-6.814-3.218-10.466
			c3.273-8.734,16.519-14.204,21.338-12.632c1.366,0.446,3.35,1.588,2.678,3.139c-1.528,3.525-13.859,6.781-16.015,8.331
			c-1.688,1.214-1.246,4.638,2.257,5.761c4.036,1.293,9.605-1.12,13.611-2.099C633.522,311.13,633.423,311.712,633.219,312.873z
			 M634.211,290.755c1.233-2.896,6.281-4.137,9.496-3.042c1.485,0.505,2.305,1.842,1.729,3.103c-1.281,2.802-5.83,5.203-9.296,4.044
			C634.205,294.213,633.489,292.45,634.211,290.755z"/>
		<path d="M671.199,321.251c-0.443,1.283-0.668,1.924-1.116,3.205c-5.855,1.63-18.096,7.11-23.483,5.113
			c-2.805-1.04-3.023-3.736-1.846-6.087c2.079-4.15,8.498-7.2,12.636-9.437c-0.033-0.078-0.049-0.116-0.082-0.194
			c-6.048,1.28-11.774,3.482-17.107,6.269c-1.76,0.919-6.153,3.35-8.167,2.647c-3.281-1.145-2.103-5.854-1.138-8.258
			c1.956-4.874,10.022-10.343,16.266-12.118c1.4-0.399,2.182-0.225,3.508,0.274c4.667,1.756,3.823,2.69,3.614,3.105
			c-1.355,2.696-14.58,6.193-15.365,7.868c-0.196,0.419,0.024,0.904,0.483,1.066c0.536,0.189,1.526-0.201,1.997-0.432
			c9.256-4.54,22.428-8.676,30.925-7.027c0.277,0.054,0.622,0.66,0.548,1.773c-0.079,1.183-0.256,2.763-0.89,4.114
			c-1.19,2.54-13.847,4.229-16.363,8.958c-0.328,0.617-0.054,1.46,0.7,1.743c1.81,0.681,6.441-0.447,8.38-0.944
			C667.282,322.225,668.583,321.897,671.199,321.251z"/>
		<path d="M705.802,325.494c-4.864,2.41-11.332,5.272-14.148,9.468c-0.704,1.049-2.125,3.308-0.523,3.926
			c2.476,0.956,12.873-1.727,16.204-2.184c-0.413,0.927-0.619,1.389-1.035,2.314c-5.862,2.043-17.988,6.05-23.228,4.023
			c-2.728-1.055-2.105-4.124-0.742-6.241c1.065-1.654,3.837-4.795,3.837-4.795c-0.093-0.152-14.732,4.788-18.028,3.516
			c-3.295-1.272-1.679-8.807-0.265-10.925c5.627-8.427,21.815-9.155,30.948-6.441c1.631,0.484,1.895,3.049,2.028,3.105
			c1.792,0.75,19.063-12.795,27.238-11.23c1.381,0.264,1.6,2.262,0.744,3.414c-1.426,1.919-5.488,3.733-7.904,4.862
			C714.79,321.148,711.767,322.586,705.802,325.494z M673.664,328.563c-0.428,0.574-0.344,1.248,0.354,1.708
			c0.765,0.503,21.646-6.149,21.646-6.149C695.242,322.848,676.78,324.375,673.664,328.563z"/>
	</g>
</g>
<text transform="matrix(1.071 -6.194248e-004 5.853084e-004 1 315.0181 369.4111)" font-family="'MyriadPro-Regular'" font-size="36">WEB DEVELOPMENT</text>
<g>
	<g>
		<g>
			<path d="M531.375,428.625c0.037,12.837,0.713,25.663,0.75,38.5c0.003,0.967,1.503,0.967,1.5,0
				c-0.037-12.837-0.713-25.663-0.75-38.5C532.872,427.658,531.372,427.658,531.375,428.625L531.375,428.625z"/>
		</g>
	</g>
	<g>
		<g>
			<path d="M530.902,428.676c-0.998,3.135-4.776,5.248-7.057,7.419c-2.927,2.786-5.856,5.72-7.617,9.402
				c-0.416,0.868,0.878,1.629,1.295,0.757c1.894-3.959,5.227-7.208,8.476-10.103c2.301-2.049,5.37-3.998,6.35-7.077
				C532.643,428.15,531.194,427.757,530.902,428.676L530.902,428.676z"/>
		</g>
	</g>
	<g>
		<g>
			<path d="M531.095,428.905c5.218,6.056,10.013,12.459,15.25,18.5c0.635,0.732,1.691-0.333,1.061-1.061
				c-5.237-6.041-10.032-12.444-15.25-18.5C531.523,427.111,530.467,428.177,531.095,428.905L531.095,428.905z"/>
		</g>
	</g>
	<g>
		<g>
			<path d="M516.772,437.503c1.629-2.974,4.21-4.963,6.187-7.646c2.479-3.365,5.232-6.511,7.714-9.868
				c0.923-1.249,6.085,7.157,6.921,8.166c2.775,3.35,6.199,6.022,8.383,9.848c0.479,0.84,1.775,0.084,1.295-0.757
				c-1.779-3.117-4.265-5.499-6.767-8.04c-3.428-3.483-5.542-8.011-8.851-11.612c-0.355-0.387-0.905-0.218-1.178,0.152
				c-2.579,3.487-5.421,6.763-8,10.25c-2.244,3.034-5.173,5.414-7,8.75C515.013,437.595,516.308,438.352,516.772,437.503
				L516.772,437.503z"/>
		</g>
	</g>
	<g>
		<g>
			<path d="M516.253,430.522c5.487-3.224,8.614-10.908,12.522-15.685c2.119-2.59,2.63-3.696,4.877-0.427
				c1.145,1.665,2.133,3.443,3.232,5.138c2.575,3.975,6.098,7.326,8.842,11.204c0.554,0.783,1.855,0.035,1.295-0.757
				c-2.205-3.116-4.57-6.058-7.117-8.902c-3.007-3.357-4.703-7.651-7.75-11c-0.272-0.299-0.786-0.283-1.061,0
				c-2.735,2.815-5.167,5.814-7.428,9.018c-2.42,3.429-4.448,7.928-8.17,10.115C514.663,429.717,515.417,431.014,516.253,430.522
				L516.253,430.522z"/>
		</g>
	</g>
	<g>
		<g>
			<path d="M516.155,423.905c2.633-2.668,5.115-5.414,7.359-8.417c2.815-3.767,4.204-8.005,8.143-10.874
				c2.245-1.636,6.236,7.327,7.245,9.039c1.971,3.345,4.275,6.47,6.692,9.502c0.603,0.756,1.657-0.313,1.061-1.061
				c-3.601-4.518-6.7-9.305-9.365-14.43c-0.812-1.562-2.886-5.071-5.009-5.071c-1.947,0-4.37,3.24-5.401,4.588
				c-1.422,1.858-2.412,4.083-3.652,6.064c-2.231,3.561-5.196,6.622-8.133,9.598C514.415,423.534,515.475,424.595,516.155,423.905
				L516.155,423.905z"/>
		</g>
	</g>
	<g>
		<g>
			<path d="M517.522,417.003c1.612-3.692,4.076-6.799,6.354-10.093c2.56-3.701,4.637-7.52,7.666-10.907
				c0.383-0.428,5.519,7.879,6.185,8.75c2.389,3.125,4.935,5.986,6.75,9.5c0.444,0.86,1.738,0.101,1.295-0.757
				c-1.579-3.057-3.636-5.646-5.798-8.299c-2.845-3.491-4.761-7.448-7.202-11.201c-0.263-0.405-0.821-0.503-1.178-0.152
				c-2.873,2.833-5.109,6.068-7.25,9.476c-2.7,4.296-6.079,8.256-8.117,12.926C515.844,417.124,517.136,417.888,517.522,417.003
				L517.522,417.003z"/>
		</g>
	</g>
</g>
<g>
	<g>
		<g>
			<path d="M531.375,428.625c0.037,12.837,0.713,25.663,0.75,38.5c0.003,0.967,1.503,0.967,1.5,0
				c-0.037-12.837-0.713-25.663-0.75-38.5C532.872,427.658,531.372,427.658,531.375,428.625L531.375,428.625z"/>
		</g>
	</g>
	<g>
		<g>
			<path d="M530.902,428.676c-0.998,3.135-4.776,5.248-7.057,7.419c-2.927,2.786-5.856,5.72-7.617,9.402
				c-0.416,0.868,0.878,1.629,1.295,0.757c1.894-3.959,5.227-7.208,8.476-10.103c2.301-2.049,5.37-3.998,6.35-7.077
				C532.643,428.15,531.194,427.757,530.902,428.676L530.902,428.676z"/>
		</g>
	</g>
	<g>
		<g>
			<path d="M531.095,428.905c5.218,6.056,10.013,12.459,15.25,18.5c0.635,0.732,1.691-0.333,1.061-1.061
				c-5.237-6.041-10.032-12.444-15.25-18.5C531.523,427.111,530.467,428.177,531.095,428.905L531.095,428.905z"/>
		</g>
	</g>
	<g>
		<g>
			<path d="M516.772,437.503c1.629-2.974,4.21-4.963,6.187-7.646c2.479-3.365,5.232-6.511,7.714-9.868
				c0.923-1.249,6.085,7.157,6.921,8.166c2.775,3.35,6.199,6.022,8.383,9.848c0.479,0.84,1.775,0.084,1.295-0.757
				c-1.779-3.117-4.265-5.499-6.767-8.04c-3.428-3.483-5.542-8.011-8.851-11.612c-0.355-0.387-0.905-0.218-1.178,0.152
				c-2.579,3.487-5.421,6.763-8,10.25c-2.244,3.034-5.173,5.414-7,8.75C515.013,437.595,516.308,438.352,516.772,437.503
				L516.772,437.503z"/>
		</g>
	</g>
	<g>
		<g>
			<path d="M516.253,430.522c5.487-3.224,8.614-10.908,12.522-15.685c2.119-2.59,2.63-3.696,4.877-0.427
				c1.145,1.665,2.133,3.443,3.232,5.138c2.575,3.975,6.098,7.326,8.842,11.204c0.554,0.783,1.855,0.035,1.295-0.757
				c-2.205-3.116-4.57-6.058-7.117-8.902c-3.007-3.357-4.703-7.651-7.75-11c-0.272-0.299-0.786-0.283-1.061,0
				c-2.735,2.815-5.167,5.814-7.428,9.018c-2.42,3.429-4.448,7.928-8.17,10.115C514.663,429.717,515.417,431.014,516.253,430.522
				L516.253,430.522z"/>
		</g>
	</g>
	<g>
		<g>
			<path d="M516.155,423.905c2.633-2.668,5.115-5.414,7.359-8.417c2.815-3.767,4.204-8.005,8.143-10.874
				c2.245-1.636,6.236,7.327,7.245,9.039c1.971,3.345,4.275,6.47,6.692,9.502c0.603,0.756,1.657-0.313,1.061-1.061
				c-3.601-4.518-6.7-9.305-9.365-14.43c-0.812-1.562-2.886-5.071-5.009-5.071c-1.947,0-4.37,3.24-5.401,4.588
				c-1.422,1.858-2.412,4.083-3.652,6.064c-2.231,3.561-5.196,6.622-8.133,9.598C514.415,423.534,515.475,424.595,516.155,423.905
				L516.155,423.905z"/>
		</g>
	</g>
	<g>
		<g>
			<path d="M517.522,417.003c1.612-3.692,4.076-6.799,6.354-10.093c2.56-3.701,4.637-7.52,7.666-10.907
				c0.383-0.428,5.519,7.879,6.185,8.75c2.389,3.125,4.935,5.986,6.75,9.5c0.444,0.86,1.738,0.101,1.295-0.757
				c-1.579-3.057-3.636-5.646-5.798-8.299c-2.845-3.491-4.761-7.448-7.202-11.201c-0.263-0.405-0.821-0.503-1.178-0.152
				c-2.873,2.833-5.109,6.068-7.25,9.476c-2.7,4.296-6.079,8.256-8.117,12.926C515.844,417.124,517.136,417.888,517.522,417.003
				L517.522,417.003z"/>
		</g>
	</g>
</g>
<g>
	<g>
		<g>
			<path d="M576.156,409.156c0.036,9.628,0.526,19.247,0.563,28.875c0.003,0.967,1.503,0.967,1.5,0
				c-0.036-9.628-0.526-19.247-0.563-28.875C577.653,408.189,576.153,408.189,576.156,409.156L576.156,409.156z"/>
		</g>
	</g>
	<g>
		<g>
			<path d="M575.808,409.145c-0.734,2.306-3.566,3.883-5.245,5.481c-2.206,2.099-4.415,4.314-5.742,7.089
				c-0.416,0.868,0.878,1.629,1.295,0.757c1.415-2.956,3.902-5.378,6.328-7.539c1.755-1.564,4.063-3.042,4.811-5.39
				C577.549,408.619,576.101,408.226,575.808,409.145L575.808,409.145z"/>
		</g>
	</g>
	<g>
		<g>
			<path d="M576.001,409.499c3.913,4.542,7.51,9.345,11.438,13.875c0.635,0.732,1.691-0.333,1.061-1.061
				c-3.928-4.53-7.524-9.333-11.438-13.875C576.429,407.705,575.373,408.771,576.001,409.499L576.001,409.499z"/>
		</g>
	</g>
	<g>
		<g>
			<path d="M565.554,415.91c2.919-5.083,7.73-9.515,11.25-14.25c-0.393,0.051-0.785,0.101-1.178,0.152
				c2.01,2.216,3.336,4.855,5.25,7.125c2.092,2.48,4.591,4.524,6.258,7.348c0.491,0.833,1.788,0.078,1.295-0.757
				c-1.512-2.563-3.586-4.487-5.627-6.626c-2.343-2.455-3.826-5.627-6.115-8.15c-0.354-0.39-0.905-0.215-1.178,0.152
				c-3.546,4.771-8.302,9.115-11.25,14.25C563.776,415.993,565.072,416.748,565.554,415.91L565.554,415.91z"/>
		</g>
	</g>
	<g>
		<g>
			<path d="M565.097,410.741c4.008-2.478,6.235-7.799,9.096-11.391c0.941-1.182,1.846-3.32,3.433-1.155
				c1.148,1.566,2.066,3.315,3.157,4.924c1.837,2.709,4.257,5.046,6.163,7.728c0.555,0.782,1.856,0.034,1.295-0.757
				c-1.667-2.347-3.449-4.567-5.367-6.714c-2.248-2.517-3.562-5.715-5.813-8.25c-0.268-0.302-0.789-0.281-1.061,0
				c-2.02,2.087-3.816,4.293-5.5,6.656c-1.867,2.621-3.348,5.925-6.161,7.665C563.52,409.954,564.272,411.251,565.097,410.741
				L565.097,410.741z"/>
		</g>
	</g>
	<g>
		<g>
			<path d="M565.062,405.749c1.932-1.963,3.747-3.979,5.417-6.167c1.755-2.299,2.792-5.004,4.746-7.167
				c2.929-3.242,4.937,2.712,6.152,4.847c1.596,2.804,3.499,5.402,5.5,7.925c0.601,0.758,1.655-0.311,1.061-1.061
				c-2.802-3.535-5.13-7.262-7.242-11.239c-0.682-1.284-2.206-3.499-3.855-3.387c-1.634,0.111-3.432,2.67-4.284,3.855
				c-2.826,3.929-5.093,7.816-8.554,11.333C563.322,405.378,564.382,406.439,565.062,405.749L565.062,405.749z"/>
		</g>
	</g>
	<g>
		<g>
			<path d="M566.116,400.535c1.209-2.769,3.057-5.1,4.766-7.57c2.136-3.087,3.86-6.282,6.555-8.966
				c-0.393-0.051-0.785-0.101-1.178-0.152c1.603,2.487,2.901,5.134,4.688,7.5c1.775,2.353,3.684,4.499,5.063,7.125
				c0.449,0.857,1.744,0.099,1.295-0.757c-1.178-2.245-2.649-4.143-4.245-6.098c-2.173-2.664-3.654-5.655-5.505-8.527
				c-0.261-0.405-0.824-0.504-1.178-0.152c-2.456,2.446-4.32,5.264-6.117,8.214c-1.782,2.925-4.057,5.461-5.438,8.625
				C564.438,400.655,565.73,401.419,566.116,400.535L566.116,400.535z"/>
		</g>
	</g>
</g>
<g>
	<g>
		<g>
			<path d="M576.156,409.156c0.036,9.628,0.526,19.247,0.563,28.875c0.003,0.967,1.503,0.967,1.5,0
				c-0.036-9.628-0.526-19.247-0.563-28.875C577.653,408.189,576.153,408.189,576.156,409.156L576.156,409.156z"/>
		</g>
	</g>
	<g>
		<g>
			<path d="M575.808,409.145c-0.734,2.306-3.566,3.883-5.245,5.481c-2.206,2.099-4.415,4.314-5.742,7.089
				c-0.416,0.868,0.878,1.629,1.295,0.757c1.415-2.956,3.902-5.378,6.328-7.539c1.755-1.564,4.063-3.042,4.811-5.39
				C577.549,408.619,576.101,408.226,575.808,409.145L575.808,409.145z"/>
		</g>
	</g>
	<g>
		<g>
			<path d="M576.001,409.499c3.913,4.542,7.51,9.345,11.438,13.875c0.635,0.732,1.691-0.333,1.061-1.061
				c-3.928-4.53-7.524-9.333-11.438-13.875C576.429,407.705,575.373,408.771,576.001,409.499L576.001,409.499z"/>
		</g>
	</g>
	<g>
		<g>
			<path d="M565.554,415.91c2.919-5.083,7.73-9.515,11.25-14.25c-0.393,0.051-0.785,0.101-1.178,0.152
				c2.01,2.216,3.336,4.855,5.25,7.125c2.092,2.48,4.591,4.524,6.258,7.348c0.491,0.833,1.788,0.078,1.295-0.757
				c-1.512-2.563-3.586-4.487-5.627-6.626c-2.343-2.455-3.826-5.627-6.115-8.15c-0.354-0.39-0.905-0.215-1.178,0.152
				c-3.546,4.771-8.302,9.115-11.25,14.25C563.776,415.993,565.072,416.748,565.554,415.91L565.554,415.91z"/>
		</g>
	</g>
	<g>
		<g>
			<path d="M565.097,410.741c4.008-2.478,6.235-7.799,9.096-11.391c0.941-1.182,1.846-3.32,3.433-1.155
				c1.148,1.566,2.066,3.315,3.157,4.924c1.837,2.709,4.257,5.046,6.163,7.728c0.555,0.782,1.856,0.034,1.295-0.757
				c-1.667-2.347-3.449-4.567-5.367-6.714c-2.248-2.517-3.562-5.715-5.813-8.25c-0.268-0.302-0.789-0.281-1.061,0
				c-2.02,2.087-3.816,4.293-5.5,6.656c-1.867,2.621-3.348,5.925-6.161,7.665C563.52,409.954,564.272,411.251,565.097,410.741
				L565.097,410.741z"/>
		</g>
	</g>
	<g>
		<g>
			<path d="M565.062,405.749c1.932-1.963,3.747-3.979,5.417-6.167c1.755-2.299,2.792-5.004,4.746-7.167
				c2.929-3.242,4.937,2.712,6.152,4.847c1.596,2.804,3.499,5.402,5.5,7.925c0.601,0.758,1.655-0.311,1.061-1.061
				c-2.802-3.535-5.13-7.262-7.242-11.239c-0.682-1.284-2.206-3.499-3.855-3.387c-1.634,0.111-3.432,2.67-4.284,3.855
				c-2.826,3.929-5.093,7.816-8.554,11.333C563.322,405.378,564.382,406.439,565.062,405.749L565.062,405.749z"/>
		</g>
	</g>
	<g>
		<g>
			<path d="M566.116,400.535c1.209-2.769,3.057-5.1,4.766-7.57c2.136-3.087,3.86-6.282,6.555-8.966
				c-0.393-0.051-0.785-0.101-1.178-0.152c1.603,2.487,2.901,5.134,4.688,7.5c1.775,2.353,3.684,4.499,5.063,7.125
				c0.449,0.857,1.744,0.099,1.295-0.757c-1.178-2.245-2.649-4.143-4.245-6.098c-2.173-2.664-3.654-5.655-5.505-8.527
				c-0.261-0.405-0.824-0.504-1.178-0.152c-2.456,2.446-4.32,5.264-6.117,8.214c-1.782,2.925-4.057,5.461-5.438,8.625
				C564.438,400.655,565.73,401.419,566.116,400.535L566.116,400.535z"/>
		</g>
	</g>
</g>
<g>
	<g>
		<g>
			<path d="M436.375,428.625c0.037,12.837,0.713,25.663,0.75,38.5c0.003,0.967,1.503,0.967,1.5,0
				c-0.037-12.837-0.713-25.663-0.75-38.5C437.872,427.658,436.372,427.658,436.375,428.625L436.375,428.625z"/>
		</g>
	</g>
	<g>
		<g>
			<path d="M435.902,428.676c-0.998,3.135-4.776,5.248-7.057,7.419c-2.927,2.786-5.856,5.72-7.617,9.402
				c-0.416,0.868,0.878,1.629,1.295,0.757c1.894-3.959,5.227-7.208,8.476-10.103c2.301-2.049,5.37-3.998,6.35-7.077
				C437.643,428.15,436.194,427.757,435.902,428.676L435.902,428.676z"/>
		</g>
	</g>
	<g>
		<g>
			<path d="M436.095,428.905c5.218,6.056,10.013,12.459,15.25,18.5c0.635,0.732,1.691-0.333,1.061-1.061
				c-5.237-6.041-10.032-12.444-15.25-18.5C436.523,427.111,435.467,428.177,436.095,428.905L436.095,428.905z"/>
		</g>
	</g>
	<g>
		<g>
			<path d="M421.772,437.503c1.629-2.974,4.21-4.963,6.187-7.646c2.479-3.365,5.232-6.511,7.714-9.868
				c0.923-1.249,6.085,7.157,6.921,8.166c2.775,3.35,6.199,6.022,8.383,9.848c0.479,0.84,1.775,0.084,1.295-0.757
				c-1.779-3.117-4.265-5.499-6.767-8.04c-3.428-3.483-5.542-8.011-8.851-11.612c-0.355-0.387-0.905-0.218-1.178,0.152
				c-2.579,3.487-5.421,6.763-8,10.25c-2.244,3.034-5.173,5.414-7,8.75C420.013,437.595,421.308,438.352,421.772,437.503
				L421.772,437.503z"/>
		</g>
	</g>
	<g>
		<g>
			<path d="M421.253,430.522c5.487-3.224,8.614-10.908,12.522-15.685c2.119-2.59,2.63-3.696,4.877-0.427
				c1.145,1.665,2.133,3.443,3.232,5.138c2.575,3.975,6.098,7.326,8.842,11.204c0.554,0.783,1.855,0.035,1.295-0.757
				c-2.205-3.116-4.57-6.058-7.117-8.902c-3.006-3.357-4.703-7.651-7.75-11c-0.272-0.299-0.786-0.283-1.061,0
				c-2.735,2.815-5.167,5.814-7.428,9.018c-2.42,3.429-4.448,7.928-8.17,10.115C419.663,429.717,420.417,431.014,421.253,430.522
				L421.253,430.522z"/>
		</g>
	</g>
	<g>
		<g>
			<path d="M421.155,423.905c2.633-2.668,5.115-5.414,7.359-8.417c2.815-3.767,4.204-8.005,8.143-10.874
				c2.246-1.636,6.236,7.327,7.245,9.039c1.971,3.345,4.275,6.47,6.692,9.502c0.603,0.756,1.657-0.313,1.061-1.061
				c-3.601-4.518-6.7-9.305-9.365-14.43c-0.812-1.562-2.886-5.071-5.009-5.071c-1.947,0-4.37,3.24-5.401,4.588
				c-1.422,1.858-2.412,4.083-3.652,6.064c-2.231,3.561-5.196,6.622-8.133,9.598C419.415,423.534,420.475,424.595,421.155,423.905
				L421.155,423.905z"/>
		</g>
	</g>
	<g>
		<g>
			<path d="M422.522,417.003c1.612-3.692,4.076-6.799,6.354-10.093c2.56-3.701,4.637-7.52,7.666-10.907
				c0.383-0.428,5.519,7.879,6.185,8.75c2.389,3.125,4.935,5.986,6.75,9.5c0.444,0.86,1.738,0.101,1.295-0.757
				c-1.579-3.057-3.636-5.646-5.798-8.299c-2.845-3.491-4.761-7.448-7.202-11.201c-0.263-0.405-0.821-0.503-1.178-0.152
				c-2.873,2.833-5.109,6.068-7.25,9.476c-2.7,4.296-6.079,8.256-8.117,12.926C420.844,417.124,422.136,417.888,422.522,417.003
				L422.522,417.003z"/>
		</g>
	</g>
</g>
<g>
	<g>
		<g>
			<path d="M436.375,428.625c0.037,12.837,0.713,25.663,0.75,38.5c0.003,0.967,1.503,0.967,1.5,0
				c-0.037-12.837-0.713-25.663-0.75-38.5C437.872,427.658,436.372,427.658,436.375,428.625L436.375,428.625z"/>
		</g>
	</g>
	<g>
		<g>
			<path d="M435.902,428.676c-0.998,3.135-4.776,5.248-7.057,7.419c-2.927,2.786-5.856,5.72-7.617,9.402
				c-0.416,0.868,0.878,1.629,1.295,0.757c1.894-3.959,5.227-7.208,8.476-10.103c2.301-2.049,5.37-3.998,6.35-7.077
				C437.643,428.15,436.194,427.757,435.902,428.676L435.902,428.676z"/>
		</g>
	</g>
	<g>
		<g>
			<path d="M436.095,428.905c5.218,6.056,10.013,12.459,15.25,18.5c0.635,0.732,1.691-0.333,1.061-1.061
				c-5.237-6.041-10.032-12.444-15.25-18.5C436.523,427.111,435.467,428.177,436.095,428.905L436.095,428.905z"/>
		</g>
	</g>
	<g>
		<g>
			<path d="M421.772,437.503c1.629-2.974,4.21-4.963,6.187-7.646c2.479-3.365,5.232-6.511,7.714-9.868
				c0.923-1.249,6.085,7.157,6.921,8.166c2.775,3.35,6.199,6.022,8.383,9.848c0.479,0.84,1.775,0.084,1.295-0.757
				c-1.779-3.117-4.265-5.499-6.767-8.04c-3.428-3.483-5.542-8.011-8.851-11.612c-0.355-0.387-0.905-0.218-1.178,0.152
				c-2.579,3.487-5.421,6.763-8,10.25c-2.244,3.034-5.173,5.414-7,8.75C420.013,437.595,421.308,438.352,421.772,437.503
				L421.772,437.503z"/>
		</g>
	</g>
	<g>
		<g>
			<path d="M421.253,430.522c5.487-3.224,8.614-10.908,12.522-15.685c2.119-2.59,2.63-3.696,4.877-0.427
				c1.145,1.665,2.133,3.443,3.232,5.138c2.575,3.975,6.098,7.326,8.842,11.204c0.554,0.783,1.855,0.035,1.295-0.757
				c-2.205-3.116-4.57-6.058-7.117-8.902c-3.006-3.357-4.703-7.651-7.75-11c-0.272-0.299-0.786-0.283-1.061,0
				c-2.735,2.815-5.167,5.814-7.428,9.018c-2.42,3.429-4.448,7.928-8.17,10.115C419.663,429.717,420.417,431.014,421.253,430.522
				L421.253,430.522z"/>
		</g>
	</g>
	<g>
		<g>
			<path d="M421.155,423.905c2.633-2.668,5.115-5.414,7.359-8.417c2.815-3.767,4.204-8.005,8.143-10.874
				c2.246-1.636,6.236,7.327,7.245,9.039c1.971,3.345,4.275,6.47,6.692,9.502c0.603,0.756,1.657-0.313,1.061-1.061
				c-3.601-4.518-6.7-9.305-9.365-14.43c-0.812-1.562-2.886-5.071-5.009-5.071c-1.947,0-4.37,3.24-5.401,4.588
				c-1.422,1.858-2.412,4.083-3.652,6.064c-2.231,3.561-5.196,6.622-8.133,9.598C419.415,423.534,420.475,424.595,421.155,423.905
				L421.155,423.905z"/>
		</g>
	</g>
	<g>
		<g>
			<path d="M422.522,417.003c1.612-3.692,4.076-6.799,6.354-10.093c2.56-3.701,4.637-7.52,7.666-10.907
				c0.383-0.428,5.519,7.879,6.185,8.75c2.389,3.125,4.935,5.986,6.75,9.5c0.444,0.86,1.738,0.101,1.295-0.757
				c-1.579-3.057-3.636-5.646-5.798-8.299c-2.845-3.491-4.761-7.448-7.202-11.201c-0.263-0.405-0.821-0.503-1.178-0.152
				c-2.873,2.833-5.109,6.068-7.25,9.476c-2.7,4.296-6.079,8.256-8.117,12.926C420.844,417.124,422.136,417.888,422.522,417.003
				L422.522,417.003z"/>
		</g>
	</g>
</g>
<g>
	<g>
		<g>
			<path d="M391.156,409.156c0.036,9.628,0.526,19.247,0.563,28.875c0.003,0.967,1.503,0.967,1.5,0
				c-0.036-9.628-0.526-19.247-0.563-28.875C392.653,408.189,391.153,408.189,391.156,409.156L391.156,409.156z"/>
		</g>
	</g>
	<g>
		<g>
			<path d="M390.808,409.145c-0.734,2.306-3.566,3.883-5.245,5.481c-2.206,2.099-4.415,4.314-5.742,7.089
				c-0.416,0.868,0.878,1.629,1.295,0.757c1.415-2.956,3.902-5.378,6.328-7.539c1.755-1.564,4.063-3.042,4.811-5.39
				C392.549,408.619,391.101,408.226,390.808,409.145L390.808,409.145z"/>
		</g>
	</g>
	<g>
		<g>
			<path d="M391.001,409.499c3.913,4.542,7.51,9.345,11.438,13.875c0.635,0.732,1.691-0.333,1.061-1.061
				c-3.928-4.53-7.524-9.333-11.438-13.875C391.429,407.705,390.373,408.771,391.001,409.499L391.001,409.499z"/>
		</g>
	</g>
	<g>
		<g>
			<path d="M380.554,415.91c2.919-5.083,7.73-9.515,11.25-14.25c-0.393,0.051-0.785,0.101-1.178,0.152
				c2.01,2.216,3.336,4.855,5.25,7.125c2.092,2.48,4.591,4.524,6.258,7.348c0.491,0.833,1.788,0.078,1.295-0.757
				c-1.512-2.563-3.586-4.487-5.627-6.626c-2.343-2.455-3.826-5.627-6.115-8.15c-0.354-0.39-0.905-0.215-1.178,0.152
				c-3.546,4.771-8.302,9.115-11.25,14.25C378.776,415.993,380.072,416.748,380.554,415.91L380.554,415.91z"/>
		</g>
	</g>
	<g>
		<g>
			<path d="M380.097,410.741c4.008-2.478,6.235-7.799,9.096-11.391c0.941-1.182,1.846-3.32,3.433-1.155
				c1.148,1.566,2.066,3.315,3.157,4.924c1.837,2.709,4.257,5.046,6.163,7.728c0.555,0.782,1.856,0.034,1.295-0.757
				c-1.667-2.347-3.449-4.567-5.367-6.714c-2.248-2.517-3.562-5.715-5.813-8.25c-0.268-0.302-0.789-0.281-1.061,0
				c-2.02,2.087-3.816,4.293-5.5,6.656c-1.867,2.621-3.348,5.925-6.161,7.665C378.52,409.954,379.272,411.251,380.097,410.741
				L380.097,410.741z"/>
		</g>
	</g>
	<g>
		<g>
			<path d="M380.062,405.749c1.932-1.963,3.747-3.979,5.417-6.167c1.755-2.299,2.792-5.004,4.746-7.167
				c2.929-3.242,4.937,2.712,6.152,4.847c1.596,2.804,3.499,5.402,5.5,7.925c0.601,0.758,1.655-0.311,1.061-1.061
				c-2.802-3.535-5.13-7.262-7.242-11.239c-0.682-1.284-2.206-3.499-3.855-3.387c-1.634,0.111-3.432,2.67-4.284,3.855
				c-2.826,3.929-5.094,7.816-8.554,11.333C378.322,405.378,379.382,406.439,380.062,405.749L380.062,405.749z"/>
		</g>
	</g>
	<g>
		<g>
			<path d="M381.116,400.535c1.209-2.769,3.057-5.1,4.766-7.57c2.136-3.087,3.86-6.282,6.555-8.966
				c-0.393-0.051-0.785-0.101-1.178-0.152c1.603,2.487,2.901,5.134,4.688,7.5c1.775,2.353,3.684,4.499,5.063,7.125
				c0.449,0.857,1.744,0.099,1.295-0.757c-1.178-2.245-2.649-4.143-4.245-6.098c-2.173-2.664-3.654-5.655-5.505-8.527
				c-0.261-0.405-0.824-0.504-1.178-0.152c-2.456,2.446-4.32,5.264-6.117,8.214c-1.782,2.925-4.057,5.461-5.438,8.625
				C379.438,400.655,380.73,401.419,381.116,400.535L381.116,400.535z"/>
		</g>
	</g>
</g>
<g>
	<g>
		<g>
			<path d="M486.603,448.072c0.037,16.175,0.908,32.334,0.945,48.51c0.002,0.967,1.502,0.967,1.5,0
				c-0.037-16.175-0.908-32.334-0.945-48.51C488.1,447.105,486.6,447.105,486.603,448.072L486.603,448.072z"/>
		</g>
	</g>
	<g>
		<g>
			<path d="M486,448.188c-1.272,3.996-6.036,6.667-8.942,9.434c-3.677,3.5-7.354,7.181-9.567,11.807
				c-0.416,0.868,0.878,1.629,1.295,0.757c2.394-5.002,6.604-9.112,10.71-12.769c2.867-2.554,6.729-4.992,7.951-8.83
				C487.74,447.663,486.292,447.27,486,448.188L486,448.188z"/>
		</g>
	</g>
	<g>
		<g>
			<path d="M486.192,448.288c6.574,7.63,12.616,15.699,19.215,23.31c0.635,0.732,1.691-0.333,1.061-1.061
				c-6.599-7.61-12.64-15.679-19.215-23.31C486.621,446.494,485.564,447.56,486.192,448.288L486.192,448.288z"/>
		</g>
	</g>
	<g>
		<g>
			<path d="M467.84,459.161c2.05-3.859,5.49-6.425,8.012-9.908c3.122-4.312,6.574-8.355,9.817-12.573
				c0.896-1.165,7.761,9.499,8.713,10.663c3.481,4.253,7.878,7.583,10.593,12.448c0.471,0.845,1.767,0.088,1.295-0.757
				c-2.298-4.118-5.708-7.203-8.948-10.567c-4.118-4.276-6.635-9.809-10.699-14.154c-0.357-0.382-0.904-0.222-1.178,0.152
				c-3.235,4.404-6.846,8.51-10.081,12.915c-2.807,3.821-6.575,6.798-8.82,11.024C466.091,459.257,467.386,460.015,467.84,459.161
				L467.84,459.161z"/>
		</g>
	</g>
	<g>
		<g>
			<path d="M467.256,450.295c3.078-1.744,5.099-4.761,7.059-7.619c3.055-4.454,5.97-8.923,9.482-13.051
				c2.92-3.432,3.448-2.863,5.928,0.868c1.447,2.177,2.734,4.454,4.19,6.626c3.194,4.764,7.422,8.829,10.745,13.536
				c0.553,0.784,1.854,0.035,1.295-0.757c-3.336-4.727-7.355-8.874-10.745-13.537c-2.763-3.8-4.745-8.024-7.958-11.5
				c-0.275-0.298-0.783-0.284-1.061,0c-3.542,3.624-6.672,7.514-9.567,11.667c-2.944,4.224-5.52,9.86-10.126,12.47
				C465.658,449.477,466.413,450.772,467.256,450.295L467.256,450.295z"/>
		</g>
	</g>
	<g>
		<g>
			<path d="M467.093,441.987c3.427-3.462,6.671-7.032,9.534-10.978c3.351-4.619,5.105-9.792,9.906-13.256
				c3.323-2.398,7.95,8.666,9.141,10.709c2.582,4.431,5.588,8.581,8.788,12.581c0.604,0.755,1.658-0.313,1.061-1.061
				c-4.427-5.534-8.303-11.415-11.561-17.71c-1.087-2.1-3.715-6.962-6.632-6.752c-2.86,0.207-6.019,4.993-7.397,7.131
				c-4.262,6.612-8.314,12.633-13.9,18.275C465.351,441.615,466.412,442.676,467.093,441.987L467.093,441.987z"/>
		</g>
	</g>
	<g>
		<g>
			<path d="M468.86,433.151c2.012-4.783,5.376-8.753,8.25-13.021c3.138-4.661,5.795-9.427,9.648-13.589
				c0.494-0.534,6.178,9.245,6.932,10.214c3.32,4.265,6.94,8.259,9.394,13.111c0.437,0.863,1.73,0.104,1.295-0.757
				c-2.019-3.993-4.773-7.333-7.573-10.788c-3.478-4.291-5.788-9.198-8.807-13.782c-0.267-0.405-0.818-0.502-1.178-0.152
				c-4.124,4.012-7.229,8.799-10.197,13.698c-3.012,4.97-6.938,9.264-9.211,14.668C467.039,433.644,468.491,434.029,468.86,433.151
				L468.86,433.151z"/>
		</g>
	</g>
</g>
<g>
	<g>
		<g>
			<path d="M486.603,448.072c0.037,16.175,0.908,32.334,0.945,48.51c0.002,0.967,1.502,0.967,1.5,0
				c-0.037-16.175-0.908-32.334-0.945-48.51C488.1,447.105,486.6,447.105,486.603,448.072L486.603,448.072z"/>
		</g>
	</g>
	<g>
		<g>
			<path d="M486,448.188c-1.272,3.996-6.036,6.667-8.942,9.434c-3.677,3.5-7.354,7.181-9.567,11.807
				c-0.416,0.868,0.878,1.629,1.295,0.757c2.394-5.002,6.604-9.112,10.71-12.769c2.867-2.554,6.729-4.992,7.951-8.83
				C487.74,447.663,486.292,447.27,486,448.188L486,448.188z"/>
		</g>
	</g>
	<g>
		<g>
			<path d="M486.192,448.288c6.574,7.63,12.616,15.699,19.215,23.31c0.635,0.732,1.691-0.333,1.061-1.061
				c-6.599-7.61-12.64-15.679-19.215-23.31C486.621,446.494,485.564,447.56,486.192,448.288L486.192,448.288z"/>
		</g>
	</g>
	<g>
		<g>
			<path d="M467.84,459.161c2.05-3.859,5.49-6.425,8.012-9.908c3.122-4.312,6.574-8.355,9.817-12.573
				c0.896-1.165,7.761,9.499,8.713,10.663c3.481,4.253,7.878,7.583,10.593,12.448c0.471,0.845,1.767,0.088,1.295-0.757
				c-2.298-4.118-5.708-7.203-8.948-10.567c-4.118-4.276-6.635-9.809-10.699-14.154c-0.357-0.382-0.904-0.222-1.178,0.152
				c-3.235,4.404-6.846,8.51-10.081,12.915c-2.807,3.821-6.575,6.798-8.82,11.024C466.091,459.257,467.386,460.015,467.84,459.161
				L467.84,459.161z"/>
		</g>
	</g>
	<g>
		<g>
			<path d="M467.256,450.295c3.078-1.744,5.099-4.761,7.059-7.619c3.055-4.454,5.97-8.923,9.482-13.051
				c2.92-3.432,3.448-2.863,5.928,0.868c1.447,2.177,2.734,4.454,4.19,6.626c3.194,4.764,7.422,8.829,10.745,13.536
				c0.553,0.784,1.854,0.035,1.295-0.757c-3.336-4.727-7.355-8.874-10.745-13.537c-2.763-3.8-4.745-8.024-7.958-11.5
				c-0.275-0.298-0.783-0.284-1.061,0c-3.542,3.624-6.672,7.514-9.567,11.667c-2.944,4.224-5.52,9.86-10.126,12.47
				C465.658,449.477,466.413,450.772,467.256,450.295L467.256,450.295z"/>
		</g>
	</g>
	<g>
		<g>
			<path d="M467.093,441.987c3.427-3.462,6.671-7.032,9.534-10.978c3.351-4.619,5.105-9.792,9.906-13.256
				c3.323-2.398,7.95,8.666,9.141,10.709c2.582,4.431,5.588,8.581,8.788,12.581c0.604,0.755,1.658-0.313,1.061-1.061
				c-4.427-5.534-8.303-11.415-11.561-17.71c-1.087-2.1-3.715-6.962-6.632-6.752c-2.86,0.207-6.019,4.993-7.397,7.131
				c-4.262,6.612-8.314,12.633-13.9,18.275C465.351,441.615,466.412,442.676,467.093,441.987L467.093,441.987z"/>
		</g>
	</g>
	<g>
		<g>
			<path d="M468.86,433.151c2.012-4.783,5.376-8.753,8.25-13.021c3.138-4.661,5.795-9.427,9.648-13.589
				c0.494-0.534,6.178,9.245,6.932,10.214c3.32,4.265,6.94,8.259,9.394,13.111c0.437,0.863,1.73,0.104,1.295-0.757
				c-2.019-3.993-4.773-7.333-7.573-10.788c-3.478-4.291-5.788-9.198-8.807-13.782c-0.267-0.405-0.818-0.502-1.178-0.152
				c-4.124,4.012-7.229,8.799-10.197,13.698c-3.012,4.97-6.938,9.264-9.211,14.668C467.039,433.644,468.491,434.029,468.86,433.151
				L468.86,433.151z"/>
		</g>
	</g>
</g>
<g>
	<g>
		<g>
			<path d="M391.156,409.156c0.036,9.628,0.526,19.247,0.563,28.875c0.003,0.967,1.503,0.967,1.5,0
				c-0.036-9.628-0.526-19.247-0.563-28.875C392.653,408.189,391.153,408.189,391.156,409.156L391.156,409.156z"/>
		</g>
	</g>
	<g>
		<g>
			<path d="M390.808,409.145c-0.734,2.306-3.566,3.883-5.245,5.481c-2.206,2.099-4.415,4.314-5.742,7.089
				c-0.416,0.868,0.878,1.629,1.295,0.757c1.415-2.956,3.902-5.378,6.328-7.539c1.755-1.564,4.063-3.042,4.811-5.39
				C392.549,408.619,391.101,408.226,390.808,409.145L390.808,409.145z"/>
		</g>
	</g>
	<g>
		<g>
			<path d="M391.001,409.499c3.913,4.542,7.51,9.345,11.438,13.875c0.635,0.732,1.691-0.333,1.061-1.061
				c-3.928-4.53-7.524-9.333-11.438-13.875C391.429,407.705,390.373,408.771,391.001,409.499L391.001,409.499z"/>
		</g>
	</g>
	<g>
		<g>
			<path d="M380.554,415.91c2.919-5.083,7.73-9.515,11.25-14.25c-0.393,0.051-0.785,0.101-1.178,0.152
				c2.01,2.216,3.336,4.855,5.25,7.125c2.092,2.48,4.591,4.524,6.258,7.348c0.491,0.833,1.788,0.078,1.295-0.757
				c-1.512-2.563-3.586-4.487-5.627-6.626c-2.343-2.455-3.826-5.627-6.115-8.15c-0.354-0.39-0.905-0.215-1.178,0.152
				c-3.546,4.771-8.302,9.115-11.25,14.25C378.776,415.993,380.072,416.748,380.554,415.91L380.554,415.91z"/>
		</g>
	</g>
	<g>
		<g>
			<path d="M380.097,410.741c4.008-2.478,6.235-7.799,9.096-11.391c0.941-1.182,1.846-3.32,3.433-1.155
				c1.148,1.566,2.066,3.315,3.157,4.924c1.837,2.709,4.257,5.046,6.163,7.728c0.555,0.782,1.856,0.034,1.295-0.757
				c-1.667-2.347-3.449-4.567-5.367-6.714c-2.248-2.517-3.562-5.715-5.813-8.25c-0.268-0.302-0.789-0.281-1.061,0
				c-2.02,2.087-3.816,4.293-5.5,6.656c-1.867,2.621-3.348,5.925-6.161,7.665C378.52,409.954,379.272,411.251,380.097,410.741
				L380.097,410.741z"/>
		</g>
	</g>
	<g>
		<g>
			<path d="M380.062,405.749c1.932-1.963,3.747-3.979,5.417-6.167c1.755-2.299,2.792-5.004,4.746-7.167
				c2.929-3.242,4.937,2.712,6.152,4.847c1.596,2.804,3.499,5.402,5.5,7.925c0.601,0.758,1.655-0.311,1.061-1.061
				c-2.802-3.535-5.13-7.262-7.242-11.239c-0.682-1.284-2.206-3.499-3.855-3.387c-1.634,0.111-3.432,2.67-4.284,3.855
				c-2.826,3.929-5.094,7.816-8.554,11.333C378.322,405.378,379.382,406.439,380.062,405.749L380.062,405.749z"/>
		</g>
	</g>
	<g>
		<g>
			<path d="M381.116,400.535c1.209-2.769,3.057-5.1,4.766-7.57c2.136-3.087,3.86-6.282,6.555-8.966
				c-0.393-0.051-0.785-0.101-1.178-0.152c1.603,2.487,2.901,5.134,4.688,7.5c1.775,2.353,3.684,4.499,5.063,7.125
				c0.449,0.857,1.744,0.099,1.295-0.757c-1.178-2.245-2.649-4.143-4.245-6.098c-2.173-2.664-3.654-5.655-5.505-8.527
				c-0.261-0.405-0.824-0.504-1.178-0.152c-2.456,2.446-4.32,5.264-6.117,8.214c-1.782,2.925-4.057,5.461-5.438,8.625
				C379.438,400.655,380.73,401.419,381.116,400.535L381.116,400.535z"/>
		</g>
	</g>
</g>
<g>
</g>
<g>
</g>
<g>
	<g>
		<path d="M327.673,460.221c0.038,0.062,0.075,0.124,0.113,0.186c0.363-0.075,0.678-0.005,0.946,0.212
			c0.533,0.432,0.554,0.956,0.058,1.574c-0.315,0.393-0.63,0.786-0.946,1.179c-0.495,0.618-1.016,0.708-1.559,0.268
			c-0.25-0.203-0.384-0.404-0.402-0.604c-0.018-0.2,0.051-0.461,0.207-0.783c0.191-0.386,0.14-0.863-0.151-1.429
			s-0.693-1.065-1.209-1.498c-0.8-0.672-1.66-0.998-2.588-0.979s-1.703,0.38-2.324,1.098c-0.251,0.291-0.503,0.581-0.754,0.871
			c-0.588,0.68-0.775,1.472-0.551,2.375c0.224,0.904,0.827,1.772,1.807,2.592c0.283,0.237,0.556,0.437,0.818,0.598
			c0.262,0.163,0.477,0.287,0.646,0.371c0.169,0.085,0.359,0.149,0.572,0.19c0.212,0.042,0.354,0.065,0.424,0.068
			c0.07,0.003,0.192-0.001,0.367-0.014c0.083-0.001,0.167-0.003,0.251-0.004c0.297-0.005,0.557,0.081,0.778,0.26
			c0.221,0.179,0.357,0.404,0.409,0.677c0.052,0.272,0.003,0.502-0.146,0.69c-0.314,0.394-0.995,0.485-2.043,0.261
			c-1.048-0.225-2.145-0.808-3.279-1.756c-1.394-1.166-2.251-2.491-2.564-3.947c-0.314-1.457-0.007-2.698,0.898-3.724
			c0.262-0.297,0.523-0.594,0.785-0.891c0.953-1.081,2.158-1.623,3.606-1.651c1.449-0.028,2.769,0.465,3.981,1.483
			C326.557,458.508,327.17,459.282,327.673,460.221z"/>
		<path d="M345.164,472.458c0.522,0.352,0.986,0.802,1.393,1.352c0.408,0.55,0.726,1.159,0.955,1.831
			c0.229,0.67,0.296,1.413,0.2,2.229c-0.097,0.815-0.383,1.603-0.867,2.362c-0.792,1.245-1.953,2.016-3.497,2.289
			c-1.542,0.272-2.99-0.039-4.318-0.933c-1.351-0.91-2.193-2.144-2.512-3.677c-0.321-1.534-0.028-2.921,0.854-4.165
			c0.874-1.234,2.08-1.961,3.603-2.207C342.498,471.293,343.887,471.599,345.164,472.458z M344.16,473.952
			c-0.817-0.55-1.723-0.729-2.728-0.54c-1.005,0.189-1.797,0.693-2.373,1.521c-0.582,0.837-0.784,1.761-0.595,2.774
			c0.189,1.012,0.714,1.811,1.569,2.387c0.844,0.568,1.775,0.753,2.783,0.554c1.008-0.199,1.781-0.722,2.323-1.557
			c0.562-0.866,0.741-1.8,0.548-2.802C345.496,475.285,344.989,474.51,344.16,473.952z"/>
		<path d="M356.983,492.262c-0.801-0.442-1.053-0.929-0.76-1.453c0.293-0.523,0.835-0.563,1.629-0.124
			c0.343,0.189,0.686,0.377,1.03,0.565c1.1-2.018,2.2-4.036,3.3-6.055c-0.333-0.182-0.667-0.365-1-0.549
			c-0.771-0.426-1.009-0.904-0.716-1.427c0.293-0.524,0.821-0.571,1.585-0.149c1.24,0.685,2.485,1.357,3.735,2.017
			c0.771,0.406,1.02,0.873,0.743,1.406c-0.276,0.532-0.805,0.597-1.582,0.187c-0.336-0.177-0.671-0.355-1.006-0.534
			c-1.083,2.028-2.165,4.055-3.247,6.083c1.301,0.695,2.608,1.378,3.919,2.047c0.251-0.492,0.502-0.984,0.752-1.476
			c0.366-0.716,0.849-0.92,1.453-0.616c0.603,0.305,0.726,0.815,0.367,1.534c-0.515,1.031-1.029,2.062-1.543,3.093
			C362.731,495.359,359.844,493.842,356.983,492.262z"/>
		<path d="M387.094,494.689c0.569,0.229,1.102,0.566,1.6,1.014c0.498,0.446,0.922,0.971,1.273,1.576
			c0.352,0.604,0.561,1.312,0.628,2.126c0.066,0.814-0.055,1.643-0.371,2.486c-0.518,1.381-1.482,2.381-2.911,2.979
			c-1.427,0.597-2.878,0.605-4.325,0.023c-1.474-0.593-2.521-1.61-3.125-3.031c-0.605-1.421-0.594-2.833,0.01-4.233
			c0.598-1.389,1.613-2.358,3.025-2.927C384.31,494.132,385.7,494.128,387.094,494.689z M386.422,496.359
			c-0.892-0.359-1.796-0.337-2.722,0.064c-0.927,0.402-1.589,1.064-1.979,1.993c-0.396,0.94-0.409,1.882-0.032,2.826
			c0.378,0.942,1.037,1.606,1.97,1.981c0.919,0.37,1.85,0.349,2.778-0.062c0.929-0.411,1.569-1.086,1.926-2.016
			c0.371-0.963,0.36-1.912-0.021-2.845C387.963,497.367,387.325,496.722,386.422,496.359z"/>
		<path d="M406.408,511.725c-0.166,0.577-0.679,0.743-1.54,0.491c-0.977-0.287-1.953-0.58-2.927-0.879
			c-0.858-0.264-1.195-0.685-1.015-1.258c0.18-0.573,0.694-0.724,1.544-0.463c0.097,0.03,0.194,0.06,0.291,0.089
			c0.674-2.198,1.347-4.396,2.021-6.593c-0.094-0.029-0.188-0.058-0.282-0.087c-0.826-0.254-1.148-0.67-0.968-1.242
			c0.181-0.573,0.674-0.731,1.484-0.482c1.368,0.42,2.739,0.828,4.113,1.222c1.195,0.342,2.093,0.898,2.7,1.68
			c0.606,0.78,0.793,1.627,0.548,2.543c-0.285,1.067-1.169,1.771-2.666,2.093c0.65,0.89,1.221,2.001,1.715,3.336
			c0.085,0.022,0.169,0.044,0.254,0.067c0.859,0.226,1.213,0.625,1.063,1.207c-0.149,0.581-0.667,0.759-1.553,0.526
			c-0.529-0.14-1.059-0.281-1.587-0.424c-0.249-0.963-0.629-1.946-1.134-2.954s-0.935-1.633-1.301-1.875
			c-0.615-0.177-1.23-0.356-1.845-0.539c-0.208,0.702-0.417,1.403-0.625,2.105c0.226,0.067,0.452,0.134,0.679,0.2
			C406.229,510.738,406.573,511.148,406.408,511.725z M405.836,506.458c0.483,0.143,0.966,0.285,1.45,0.424
			c0.801,0.232,1.507,0.279,2.115,0.143c0.608-0.135,0.97-0.419,1.087-0.846c0.103-0.37-0.009-0.734-0.331-1.091
			c-0.321-0.357-0.783-0.622-1.386-0.794c-0.704-0.201-1.407-0.406-2.109-0.614C406.386,504.605,406.111,505.531,405.836,506.458z"
			/>
		<path d="M432.297,518.525c-0.879-0.148-1.267-0.521-1.163-1.113c0.104-0.591,0.592-0.809,1.463-0.662
			c0.152,0.025,0.304,0.051,0.456,0.076c-0.098-0.369-0.195-0.738-0.291-1.107c-1.565-0.264-3.127-0.543-4.688-0.839
			c-0.22,0.313-0.441,0.625-0.664,0.937c0.153,0.029,0.307,0.059,0.46,0.087c0.88,0.167,1.266,0.541,1.158,1.131
			c-0.108,0.59-0.601,0.806-1.478,0.64c-0.883-0.167-1.765-0.34-2.647-0.517c-0.875-0.176-1.25-0.562-1.127-1.149
			s0.623-0.789,1.504-0.611c1.484-2.046,2.938-4.105,4.364-6.176c-0.403-0.075-0.806-0.152-1.208-0.229
			c-0.857-0.166-1.226-0.546-1.108-1.134c0.118-0.589,0.6-0.798,1.45-0.633c1.361,0.262,2.723,0.512,4.087,0.75
			c0.75,3.072,1.55,6.143,2.398,9.209c0.934,0.146,1.356,0.512,1.267,1.105c-0.089,0.594-0.574,0.825-1.455,0.688
			C434.148,518.832,433.222,518.681,432.297,518.525z M432.27,513.81c-0.311-1.226-0.615-2.452-0.911-3.678
			c-0.709,1.046-1.427,2.089-2.151,3.129C430.228,513.451,431.248,513.634,432.27,513.81z"/>
		<path d="M449.673,518.995c0.217-2.288,0.435-4.576,0.652-6.864c-0.79-0.075-1.152-0.414-1.092-1.01
			c0.06-0.598,0.519-0.852,1.378-0.771c1.359,0.128,2.719,0.244,4.081,0.347c1.399,0.106,2.543,0.663,3.448,1.679
			c0.906,1.016,1.329,2.227,1.253,3.641c-0.016,0.282-0.031,0.564-0.046,0.846c-0.075,1.389-0.623,2.485-1.658,3.276
			c-1.034,0.792-2.359,1.132-3.958,1.01c-1.37-0.105-2.739-0.222-4.108-0.351c-0.9-0.085-1.318-0.429-1.258-1.027
			c0.029-0.287,0.157-0.497,0.387-0.631C448.979,519.006,449.286,518.958,449.673,518.995z M457.424,515.867
			c0.02-0.311-0.009-0.635-0.086-0.97c-0.077-0.336-0.219-0.685-0.424-1.046s-0.523-0.668-0.955-0.922
			c-0.432-0.252-0.951-0.401-1.559-0.448c-0.712-0.055-1.424-0.112-2.135-0.174c-0.198,2.29-0.396,4.579-0.594,6.869
			c0.739,0.063,1.479,0.124,2.219,0.181c1.054,0.081,1.885-0.115,2.491-0.58c0.605-0.465,0.934-1.161,0.992-2.083
			C457.389,516.417,457.407,516.142,457.424,515.867z"/>
		<path d="M477.994,511.027c0.604-0.016,1.217,0.083,1.843,0.296c0.625,0.212,1.214,0.526,1.769,0.942
			c0.555,0.415,1.022,0.982,1.403,1.703c0.379,0.721,0.594,1.53,0.639,2.429c0.074,1.473-0.407,2.773-1.466,3.888
			c-1.057,1.113-2.366,1.696-3.901,1.736c-1.564,0.041-2.907-0.477-4.008-1.541c-1.101-1.063-1.643-2.363-1.646-3.887
			c-0.004-1.512,0.532-2.805,1.582-3.889C475.261,511.622,476.515,511.065,477.994,511.027z M478.041,512.826
			c-0.947,0.025-1.754,0.403-2.433,1.14c-0.678,0.737-1.018,1.607-1.006,2.615c0.011,1.019,0.367,1.889,1.078,2.605
			c0.709,0.715,1.564,1.062,2.555,1.036c0.976-0.025,1.809-0.414,2.487-1.159c0.679-0.745,0.993-1.618,0.952-2.613
			c-0.043-1.031-0.425-1.897-1.135-2.603C479.828,513.14,478.999,512.801,478.041,512.826z"/>
		<path d="M533.832,513.728c-0.865,0.231-1.373,0.053-1.525-0.528c-0.152-0.581,0.201-0.981,1.059-1.211
			c0.098-0.026,0.195-0.052,0.293-0.079c-0.599-2.219-1.197-4.438-1.796-6.657c-0.095,0.026-0.189,0.051-0.284,0.077
			c-0.833,0.223-1.326,0.041-1.478-0.539c-0.152-0.582,0.185-0.979,1.011-1.2c1.583-0.424,3.164-0.866,4.74-1.325
			c1.059-0.309,2.013-0.3,2.869,0.028c0.856,0.329,1.415,0.897,1.667,1.71c0.228,0.734,0.033,1.505-0.596,2.311
			c1.53,0.2,2.468,0.813,2.799,1.868c0.259,0.824,0.121,1.597-0.422,2.318c-0.542,0.72-1.396,1.256-2.555,1.598
			C537.691,512.667,535.764,513.21,533.832,513.728z M534.435,507.181c0.719-0.201,1.438-0.404,2.156-0.612
			c0.686-0.198,1.205-0.485,1.555-0.858c0.351-0.374,0.466-0.756,0.349-1.147c-0.104-0.345-0.355-0.563-0.752-0.658
			c-0.397-0.095-0.89-0.056-1.48,0.116c-0.835,0.243-1.671,0.481-2.508,0.714C533.979,505.55,534.207,506.365,534.435,507.181z
			 M540.696,508.881c-0.112-0.367-0.435-0.644-0.966-0.835c-0.532-0.19-1.27-0.146-2.217,0.13c-0.864,0.251-1.729,0.498-2.594,0.738
			c0.229,0.821,0.458,1.642,0.687,2.463c1.135-0.316,2.268-0.641,3.398-0.974C540.323,510.014,540.885,509.501,540.696,508.881z"/>
		<path d="M563.535,503.626c-0.834,0.347-1.367,0.239-1.594-0.316s0.075-1.002,0.903-1.346c0.144-0.06,0.289-0.12,0.433-0.18
			c-0.281-0.26-0.563-0.52-0.843-0.78c-1.485,0.617-2.976,1.219-4.472,1.805c-0.022,0.382-0.044,0.765-0.068,1.147
			c0.147-0.057,0.294-0.115,0.441-0.172c0.843-0.331,1.375-0.221,1.597,0.336c0.223,0.558-0.084,1.004-0.924,1.333
			c-0.846,0.331-1.694,0.658-2.543,0.979c-0.843,0.319-1.369,0.193-1.579-0.37c-0.209-0.563,0.111-1,0.961-1.321
			c0.177-2.525,0.322-5.045,0.438-7.562c-0.386,0.152-0.772,0.303-1.159,0.453c-0.823,0.319-1.341,0.194-1.555-0.366
			c-0.214-0.562,0.087-0.996,0.903-1.313c1.306-0.506,2.608-1.025,3.906-1.557c2.288,2.196,4.617,4.362,6.988,6.499
			c0.881-0.378,1.441-0.298,1.682,0.252c0.241,0.55-0.053,1.007-0.884,1.365C565.291,502.891,564.414,503.261,563.535,503.626z
			 M560.99,499.653c-0.923-0.869-1.839-1.743-2.748-2.622c-0.05,1.266-0.107,2.533-0.172,3.801
			C559.045,500.446,560.019,500.053,560.99,499.653z"/>
		<path d="M583.032,483.592c0.256,0.462,0.513,0.923,0.769,1.385c0.39,0.703,0.294,1.217-0.291,1.539
			c-0.13,0.072-0.257,0.117-0.378,0.135c-0.122,0.019-0.22,0.021-0.297,0.009c-0.076-0.013-0.16-0.046-0.25-0.1
			c-0.091-0.053-0.154-0.097-0.188-0.133c-0.035-0.036-0.083-0.088-0.144-0.158c-0.061-0.069-0.094-0.109-0.1-0.12
			c-0.254-0.271-0.626-0.399-1.115-0.389c-0.488,0.012-1.009,0.165-1.563,0.459s-0.965,0.66-1.235,1.098
			c-0.269,0.438-0.316,0.827-0.14,1.168c0.108,0.208,0.266,0.353,0.478,0.435c0.21,0.082,0.485,0.09,0.823,0.025
			s0.604-0.126,0.796-0.181c0.193-0.057,0.478-0.141,0.854-0.255c0.498-0.143,0.935-0.272,1.314-0.386
			c0.379-0.114,0.788-0.194,1.228-0.243c0.439-0.047,0.829-0.037,1.167,0.033c0.337,0.069,0.667,0.214,0.989,0.438
			c0.322,0.222,0.592,0.528,0.811,0.92c0.455,0.817,0.452,1.686-0.021,2.604c-0.473,0.918-1.332,1.715-2.57,2.374
			c-1.01,0.537-2.072,0.827-3.175,0.869c-0.104,0.377-0.275,0.627-0.511,0.748c-0.613,0.313-1.098,0.113-1.454-0.595
			c-0.179-0.354-0.357-0.707-0.535-1.06c-0.356-0.708-0.239-1.21,0.352-1.512c0.082-0.042,0.162-0.073,0.239-0.092
			c0.078-0.02,0.153-0.031,0.225-0.035c0.072-0.003,0.136-0.001,0.19,0.004c0.055,0.005,0.108,0.024,0.163,0.058
			c0.053,0.033,0.1,0.059,0.14,0.08c0.04,0.02,0.079,0.047,0.119,0.081c0.04,0.034,0.069,0.062,0.089,0.086
			c0.019,0.023,0.047,0.054,0.08,0.09c0.015,0.013,0.029,0.026,0.044,0.039c0.232,0.245,0.649,0.34,1.251,0.285
			c0.602-0.057,1.207-0.246,1.811-0.566c0.682-0.362,1.19-0.786,1.525-1.268c0.335-0.481,0.408-0.892,0.225-1.229
			c-0.144-0.264-0.383-0.417-0.717-0.461c-0.334-0.044-0.641-0.026-0.918,0.054c-0.278,0.082-0.733,0.212-1.364,0.392
			c-0.09,0.03-0.156,0.048-0.198,0.053c-0.609,0.17-1.136,0.316-1.583,0.438s-0.918,0.179-1.416,0.171
			c-0.498-0.007-0.934-0.135-1.307-0.382c-0.375-0.248-0.681-0.607-0.919-1.078c-0.412-0.814-0.392-1.674,0.048-2.582
			c0.441-0.908,1.193-1.64,2.259-2.206c0.914-0.485,1.765-0.72,2.562-0.704c-0.015-0.251,0.003-0.439,0.058-0.564
			c0.053-0.125,0.168-0.236,0.343-0.333C582.169,482.713,582.647,482.9,583.032,483.592z"/>
		<path d="M601.511,474.644c0.567-0.385,1.078-0.249,1.532,0.415c0.383,0.56,0.766,1.119,1.148,1.679
			c0.448,0.653,0.389,1.175-0.179,1.562c-0.579,0.393-1.09,0.258-1.531-0.4c-0.023-0.035-0.047-0.07-0.07-0.105
			c-0.485,0.327-0.972,0.651-1.459,0.974c0.473,0.716,0.946,1.432,1.419,2.148c1.483-0.982,2.959-1.982,4.425-3.001
			c-0.178-0.256-0.356-0.513-0.534-0.77c-0.458-0.661-0.403-1.188,0.164-1.585c0.565-0.397,1.081-0.27,1.545,0.387
			c0.526,0.745,1.053,1.49,1.579,2.235c-2.706,1.916-5.442,3.768-8.208,5.558c-0.775,0.501-1.325,0.496-1.647-0.011
			c-0.323-0.506-0.098-1.004,0.671-1.501c0.087-0.057,0.175-0.113,0.263-0.17c-1.25-1.929-2.5-3.858-3.75-5.787
			c-0.085,0.055-0.17,0.11-0.255,0.166c-0.747,0.483-1.283,0.468-1.604-0.038c-0.323-0.507-0.113-0.996,0.628-1.475
			c2.52-1.63,5.015-3.316,7.483-5.056c0.518,0.736,1.036,1.472,1.554,2.208c0.463,0.657,0.416,1.184-0.146,1.576
			c-0.561,0.391-1.07,0.253-1.527-0.408c-0.17-0.247-0.341-0.494-0.511-0.741c-1.303,0.901-2.613,1.788-3.93,2.659
			c0.463,0.701,0.926,1.402,1.389,2.103c0.484-0.32,0.966-0.642,1.448-0.966c-0.023-0.035-0.046-0.069-0.069-0.103
			C600.897,475.537,600.955,475.021,601.511,474.644z"/>
		<path d="M620.672,467.503c-1.444-1.787-2.889-3.575-4.333-5.362c-0.651,0.527-1.165,0.552-1.539,0.084
			c-0.375-0.47-0.206-0.987,0.503-1.561c1.121-0.908,2.236-1.829,3.344-2.761c1.139-0.958,2.402-1.412,3.808-1.362
			c1.405,0.049,2.581,0.594,3.518,1.656c0.187,0.212,0.374,0.423,0.56,0.635c0.92,1.043,1.273,2.23,1.042,3.562
			c-0.231,1.331-1.001,2.556-2.303,3.651c-1.116,0.938-2.238,1.864-3.367,2.778c-0.743,0.601-1.302,0.663-1.676,0.194
			c-0.18-0.225-0.23-0.469-0.151-0.732C620.155,468.021,620.353,467.761,620.672,467.503z M624.364,459.553
			c-0.204-0.236-0.454-0.444-0.749-0.625c-0.295-0.182-0.648-0.324-1.059-0.429s-0.869-0.087-1.376,0.053
			c-0.506,0.14-1.007,0.418-1.502,0.835c-0.58,0.487-1.162,0.971-1.745,1.452c1.46,1.774,2.921,3.549,4.382,5.323
			c0.606-0.5,1.211-1.003,1.813-1.509c0.858-0.722,1.354-1.477,1.488-2.256s-0.105-1.518-0.71-2.217
			C624.726,459.971,624.545,459.762,624.364,459.553z"/>
	</g>
</g>
<g>
	<g>
		<path d="M303.015,105.469c-3.813,5.35-14.673,25.372-1.587,27.095c5.582,0.735,14.13-1.471,14.858-8.13
			c0.835-7.636-5.145-15.085-10.303-20.037c-1.395-1.339-3.519,0.779-2.121,2.121c3.948,3.79,7.411,8.284,9.078,13.557
			c2.3,7.275-5.705,10.793-11.852,9.371c-8.248-1.908,2.154-19.147,4.518-22.464C306.731,105.403,304.128,103.908,303.015,105.469
			L303.015,105.469z"/>
	</g>
</g>
<g>
	<g>
		<path d="M395.015,545.469c-3.813,5.35-14.672,25.372-1.587,27.095c5.582,0.735,14.13-1.47,14.858-8.129
			c0.835-7.636-5.145-15.085-10.303-20.037c-1.395-1.339-3.519,0.779-2.121,2.121c3.948,3.79,7.411,8.284,9.078,13.557
			c2.3,7.275-5.705,10.793-11.852,9.371c-8.248-1.908,2.154-19.147,4.518-22.464C398.731,545.403,396.128,543.908,395.015,545.469
			L395.015,545.469z"/>
	</g>
</g>
<g>
	<g>
		<path d="M630.015,507.469c-3.813,5.35-14.672,25.372-1.587,27.095c5.582,0.735,14.13-1.47,14.858-8.129
			c0.834-7.636-5.145-15.085-10.303-20.037c-1.395-1.339-3.519,0.779-2.121,2.121c3.948,3.79,7.411,8.284,9.078,13.557
			c2.3,7.276-5.705,10.793-11.852,9.371c-8.248-1.908,2.154-19.147,4.518-22.464C633.731,507.403,631.128,505.908,630.015,507.469
			L630.015,507.469z"/>
	</g>
</g>
<g>
	<g>
		<path d="M565.015,541.469c-3.813,5.35-14.672,25.372-1.587,27.095c5.582,0.735,14.13-1.47,14.858-8.129
			c0.834-7.636-5.145-15.085-10.303-20.037c-1.395-1.339-3.519,0.779-2.121,2.121c3.948,3.79,7.411,8.284,9.078,13.557
			c2.3,7.276-5.705,10.793-11.852,9.371c-8.248-1.908,2.154-19.147,4.518-22.464C568.731,541.403,566.128,539.908,565.015,541.469
			L565.015,541.469z"/>
	</g>
</g>
<g>
</g>
<g>
	<g>
		<path d="M488.015,555.469c-3.813,5.35-14.672,25.372-1.587,27.095c5.583,0.735,14.13-1.47,14.858-8.129
			c0.834-7.636-5.145-15.085-10.303-20.037c-1.395-1.339-3.519,0.779-2.121,2.121c3.948,3.79,7.411,8.284,9.078,13.557
			c2.3,7.276-5.705,10.793-11.852,9.371c-8.248-1.908,2.154-19.147,4.518-22.464C491.731,555.403,489.128,553.908,488.015,555.469
			L488.015,555.469z"/>
	</g>
</g>
<g>
	<g>
		<path d="M318.015,507.469c-3.813,5.35-14.672,25.372-1.587,27.095c5.582,0.735,14.13-1.47,14.858-8.129
			c0.835-7.636-5.145-15.085-10.303-20.037c-1.395-1.339-3.519,0.779-2.121,2.121c3.948,3.79,7.411,8.284,9.078,13.557
			c2.3,7.275-5.705,10.793-11.852,9.371c-8.248-1.908,2.154-19.147,4.518-22.464C321.731,507.403,319.128,505.908,318.015,507.469
			L318.015,507.469z"/>
	</g>
</g>
<g>
	<g>
		<path d="M445.015,1142.469c-3.813,5.35-14.672,25.371-1.587,27.095c5.582,0.735,14.13-1.47,14.858-8.13
			c0.835-7.636-5.145-15.085-10.303-20.036c-1.395-1.34-3.519,0.779-2.121,2.121c3.948,3.79,7.411,8.284,9.078,13.557
			c2.3,7.275-5.705,10.793-11.852,9.371c-8.248-1.908,2.154-19.147,4.518-22.464
			C448.731,1142.403,446.128,1140.907,445.015,1142.469L445.015,1142.469z"/>
	</g>
</g>
<g>
	<g>
		<path d="M383.015,80.469c-3.813,5.35-14.673,25.372-1.587,27.095c5.582,0.735,14.13-1.471,14.858-8.13
			c0.835-7.636-5.145-15.085-10.303-20.037c-1.395-1.339-3.519,0.779-2.121,2.121c3.948,3.79,7.411,8.284,9.078,13.557
			c2.3,7.275-5.705,10.793-11.852,9.371c-8.248-1.908,2.154-19.147,4.518-22.464C386.731,80.403,384.128,78.908,383.015,80.469
			L383.015,80.469z"/>
	</g>
</g>
<g>
	<g>
		<path d="M472.71,70.483c-3.94,5.746-14.13,25.143-1.17,27.131c5.539,0.85,13.701-1.958,14.139-8.433
			c0.51-7.534-4.974-14.735-10.023-19.768c-1.371-1.367-3.493,0.754-2.121,2.121c3.963,3.951,7.411,8.649,8.901,14.109
			c1.876,6.871-5.843,10.277-11.606,8.769c-7.76-2.032,2.236-19.157,4.471-22.415C476.398,70.397,473.797,68.899,472.71,70.483
			L472.71,70.483z"/>
	</g>
</g>
<g>
	<g>
		<path d="M566.674,82.13c-4.979,5.41-18.12,24.007-4.197,27.042c6.052,1.319,13.25-0.925,14.449-7.549
			c1.241-6.849-3.278-14.646-7.203-19.863c-1.148-1.526-3.755-0.034-2.591,1.514c3.047,4.051,5.447,8.535,6.614,13.492
			c1.79,7.601-4.506,10.814-11.332,9.327c-9.297-2.026,3.605-18.825,6.38-21.841C570.103,82.831,567.986,80.704,566.674,82.13
			L566.674,82.13z"/>
	</g>
</g>
<g>
	<g>
		<path d="M650.674,108.13c-4.979,5.41-18.12,24.007-4.197,27.042c6.052,1.319,13.25-0.925,14.449-7.549
			c1.241-6.849-3.278-14.646-7.203-19.863c-1.148-1.526-3.755-0.034-2.591,1.514c3.047,4.051,5.447,8.535,6.614,13.492
			c1.79,7.601-4.506,10.814-11.332,9.327c-9.297-2.026,3.605-18.825,6.38-21.841C654.103,108.831,651.986,106.704,650.674,108.13
			L650.674,108.13z"/>
	</g>
</g>
</svg>
